<svg width="39" height="39" viewBox="0 0 39 39" fill="none" xmlns="http://www.w3.org/2000/svg">
<g clip-path="url(#clip0_1_2)">
<path d="M19.4993 38.9986C30.2685 38.9986 38.9986 30.2685 38.9986 19.4993C38.9986 8.73013 30.2685 0 19.4993 0C8.73013 0 0 8.73013 0 19.4993C0 30.2685 8.73013 38.9986 19.4993 38.9986Z" fill="white"/>
<path d="M19.4201 10.5005C16.9482 10.4754 14.5674 11.4327 12.801 13.1622C11.0346 14.8917 10.0271 17.2517 10 19.7236C10.0095 21.6772 10.638 23.5774 11.795 25.1515C12.9521 26.7255 14.5782 27.8923 16.4399 28.4844C16.9109 28.57 17.0822 28.2874 17.0822 28.039V26.4719C14.4617 27.0285 13.9051 25.2387 13.9051 25.2387C13.7306 24.6768 13.3598 24.1965 12.8603 23.8856C12.0039 23.3204 12.9288 23.329 12.9288 23.329C13.2248 23.3686 13.508 23.4746 13.7572 23.6393C14.0063 23.8039 14.215 24.0228 14.3675 24.2796C14.6333 24.7404 15.0693 25.0785 15.5819 25.221C16.0944 25.3636 16.6424 25.2992 17.1079 25.0417C17.1558 24.5728 17.3682 24.1359 17.7074 23.8086C15.6178 23.5773 13.4255 22.7895 13.4255 19.2526C13.4068 18.33 13.7477 17.4364 14.3761 16.7606C14.0899 15.9685 14.1237 15.0961 14.4703 14.3285C14.4703 14.3285 15.2667 14.0801 17.0394 15.2705C18.5825 14.8593 20.2064 14.8593 21.7495 15.2705C23.5479 14.0801 24.3186 14.3285 24.3186 14.3285C24.6652 15.0961 24.699 15.9685 24.4128 16.7606C25.0558 17.424 25.4151 18.3117 25.4147 19.2355C25.4147 22.7809 23.2053 23.5602 21.1329 23.7914C21.3598 24.0117 21.5351 24.2796 21.6461 24.5758C21.7572 24.8719 21.8013 25.189 21.7752 25.5042V28.0305C21.7752 28.3302 21.9464 28.57 22.4174 28.4758C24.2739 27.8801 25.8945 26.713 27.048 25.1412C28.2015 23.5694 28.8288 21.6733 28.8402 19.7236C28.8131 17.2517 27.8057 14.8917 26.0393 13.1622C24.2729 11.4327 21.8921 10.4754 19.4201 10.5005Z" fill="black"/>
</g>
<defs>
<clipPath id="clip0_1_2">
<rect width="39" height="39" fill="white"/>
</clipPath>
</defs>
</svg>
