<svg width="39" height="39" viewBox="0 0 39 39" fill="none" xmlns="http://www.w3.org/2000/svg">
<g clip-path="url(#clip0_1_2)">
<path d="M19.4993 38.9986C30.2685 38.9986 38.9986 30.2685 38.9986 19.4993C38.9986 8.73013 30.2685 0 19.4993 0C8.73013 0 0 8.73013 0 19.4993C0 30.2685 8.73013 38.9986 19.4993 38.9986Z" fill="white"/>
<path d="M19.5001 13.5003C17.8521 13.4836 16.2649 14.1218 15.0873 15.2748C13.9097 16.4278 13.2381 18.0011 13.22 19.6491C13.2264 20.9515 13.6453 22.2183 14.4167 23.2677C15.1881 24.317 16.2722 25.0949 17.5133 25.4896C17.8273 25.5467 17.9415 25.3583 17.9415 25.1927V24.1479C16.1945 24.519 15.8234 23.3258 15.8234 23.3258C15.7071 22.9512 15.4598 22.631 15.1269 22.4238C14.5559 22.0469 15.1725 22.0527 15.1725 22.0527C15.3699 22.079 15.5587 22.1498 15.7248 22.2595C15.8909 22.3693 16.03 22.5152 16.1317 22.6864C16.3089 22.9936 16.5996 23.219 16.9412 23.314C17.2829 23.409 17.6483 23.3661 17.9586 23.1945C17.9905 22.8818 18.1321 22.5906 18.3583 22.3724C16.9652 22.2182 15.5037 21.693 15.5037 19.3351C15.4912 18.72 15.7185 18.1242 16.1374 17.6737C15.9466 17.1457 15.9691 16.564 16.2002 16.0523C16.2002 16.0523 16.7311 15.8868 17.9129 16.6803C18.9417 16.4062 20.0242 16.4062 21.053 16.6803C22.2519 15.8868 22.7657 16.0523 22.7657 16.0523C22.9968 16.564 23.0193 17.1457 22.8285 17.6737C23.2572 18.116 23.4968 18.7078 23.4965 19.3237C23.4965 21.6873 22.0235 22.2068 20.6419 22.361C20.7932 22.5078 20.9101 22.6864 20.9841 22.8838C21.0581 23.0813 21.0875 23.2926 21.0701 23.5028V25.187C21.0701 25.3868 21.1843 25.5467 21.4983 25.4839C22.7359 25.0867 23.8164 24.3087 24.5854 23.2608C25.3543 22.2129 25.7725 20.9488 25.7802 19.6491C25.7621 18.0011 25.0905 16.4278 23.9129 15.2748C22.7353 14.1218 21.1481 13.4836 19.5001 13.5003Z" fill="black"/>
</g>
<defs>
<clipPath id="clip0_1_2">
<rect width="39" height="39" fill="white"/>
</clipPath>
</defs>
</svg>
