<svg width="39" height="39" viewBox="0 0 39 39" fill="none" xmlns="http://www.w3.org/2000/svg">
<g clip-path="url(#clip0_1_20)">
<path d="M19.4993 38.9986C30.2685 38.9986 38.9986 30.2685 38.9986 19.4993C38.9986 8.73013 30.2685 0 19.4993 0C8.73013 0 0 8.73013 0 19.4993C0 30.2685 8.73013 38.9986 19.4993 38.9986Z" fill="white"/>
<path d="M21.425 17.3C20.9566 17.2984 20.4925 17.3892 20.0592 17.5671C19.626 17.7451 19.232 18.0067 18.9 18.337C18.5679 18.6674 18.3043 19.06 18.1241 19.4923C17.944 19.9247 17.8508 20.3883 17.85 20.8567V24.45C17.85 24.5959 17.908 24.7358 18.0111 24.8389C18.1142 24.9421 18.2541 25 18.4 25H19.6833C19.8292 25 19.9691 24.9421 20.0722 24.8389C20.1754 24.7358 20.2333 24.5959 20.2333 24.45V20.8567C20.2332 20.6901 20.2682 20.5253 20.336 20.3732C20.4038 20.221 20.503 20.0849 20.6269 19.9736C20.7509 19.8623 20.8969 19.7784 21.0555 19.7273C21.2141 19.6763 21.3816 19.6592 21.5472 19.6772C21.8442 19.7146 22.1172 19.8597 22.3143 20.085C22.5114 20.3103 22.619 20.6001 22.6167 20.8995V24.45C22.6167 24.5959 22.6746 24.7358 22.7778 24.8389C22.8809 24.9421 23.0208 25 23.1667 25H24.45C24.5959 25 24.7358 24.9421 24.8389 24.8389C24.9421 24.7358 25 24.5959 25 24.45V20.8567C24.9992 20.3883 24.9061 19.9247 24.7259 19.4923C24.5457 19.06 24.2821 18.6674 23.95 18.337C23.618 18.0067 23.224 17.7451 22.7908 17.5671C22.3575 17.3892 21.8934 17.2984 21.425 17.3Z" fill="black"/>
<path d="M16.2 17.85H14.55C14.2462 17.85 14 18.0962 14 18.4V24.45C14 24.7538 14.2462 25 14.55 25H16.2C16.5038 25 16.75 24.7538 16.75 24.45V18.4C16.75 18.0962 16.5038 17.85 16.2 17.85Z" fill="black"/>
<path d="M15.375 16.75C16.1344 16.75 16.75 16.1344 16.75 15.375C16.75 14.6156 16.1344 14 15.375 14C14.6156 14 14 14.6156 14 15.375C14 16.1344 14.6156 16.75 15.375 16.75Z" fill="black"/>
</g>
<defs>
<clipPath id="clip0_1_20">
<rect width="39" height="39" fill="white"/>
</clipPath>
</defs>
</svg>
