<svg width="39" height="39" viewBox="0 0 39 39" fill="none" xmlns="http://www.w3.org/2000/svg">
<g clip-path="url(#clip0_1_20)">
<path d="M19.4993 38.9986C30.2685 38.9986 38.9986 30.2685 38.9986 19.4993C38.9986 8.73013 30.2685 0 19.4993 0C8.73013 0 0 8.73013 0 19.4993C0 30.2685 8.73013 38.9986 19.4993 38.9986Z" fill="white"/>
<path d="M22.3 16.3C21.6187 16.2976 20.9437 16.4296 20.3135 16.6885C19.6833 16.9473 19.1103 17.3279 18.6273 17.8084C18.1443 18.2889 17.7608 18.8599 17.4988 19.4888C17.2367 20.1176 17.1012 20.792 17.1 21.4733V26.7C17.1 26.9121 17.1843 27.1156 17.3344 27.2656C17.4844 27.4157 17.6879 27.5 17.9 27.5H19.7667C19.9789 27.5 20.1824 27.4157 20.3324 27.2656C20.4824 27.1156 20.5667 26.9121 20.5667 26.7V21.4733C20.5665 21.231 20.6174 20.9914 20.7161 20.77C20.8147 20.5487 20.9589 20.3507 21.1392 20.1888C21.3195 20.0269 21.5319 19.9049 21.7626 19.8306C21.9932 19.7563 22.2369 19.7315 22.4778 19.7577C22.9098 19.8121 23.3068 20.0232 23.5936 20.3509C23.8803 20.6786 24.0368 21.1001 24.0334 21.5355V26.7C24.0334 26.9121 24.1177 27.1156 24.2677 27.2656C24.4177 27.4157 24.6212 27.5 24.8334 27.5H26.7C26.9122 27.5 27.1157 27.4157 27.2657 27.2656C27.4158 27.1156 27.5 26.9121 27.5 26.7V21.4733C27.4989 20.792 27.3634 20.1176 27.1013 19.4888C26.8393 18.8599 26.4558 18.2889 25.9728 17.8084C25.4898 17.3279 24.9168 16.9473 24.2866 16.6885C23.6564 16.4296 22.9813 16.2976 22.3 16.3Z" fill="black"/>
<path d="M14.7 17.1H12.3C11.8582 17.1 11.5 17.4582 11.5 17.9V26.7C11.5 27.1419 11.8582 27.5 12.3 27.5H14.7C15.1418 27.5 15.5 27.1419 15.5 26.7V17.9C15.5 17.4582 15.1418 17.1 14.7 17.1Z" fill="black"/>
<path d="M13.5 15.5C14.6046 15.5 15.5 14.6046 15.5 13.5C15.5 12.3954 14.6046 11.5 13.5 11.5C12.3954 11.5 11.5 12.3954 11.5 13.5C11.5 14.6046 12.3954 15.5 13.5 15.5Z" fill="black"/>
</g>
<defs>
<clipPath id="clip0_1_20">
<rect width="39" height="39" fill="white"/>
</clipPath>
</defs>
</svg>
