<?xml version="1.0" encoding="UTF-8"?><svg id="Calque_2" xmlns="http://www.w3.org/2000/svg" viewBox="0 0 37.97 30.5"><defs><style>.cls-1{fill:#fff;}</style></defs><g id="Calque_1-2"><path class="cls-1" d="M9.78,25.55c4.75-1.62,10.26-4.48,15.12-4.48,4.16,0,7.02,1.84,7.02,5.19,0,1.08-.54,2.32-1.78,3.51-1.03,1.03-1.08,1.03-.7-.27.11-.49.22-.92.22-1.3,0-3.67-3.02-5.35-6.86-5.35-6.54,0-12.91,4.7-19.66,4.7-.54,0-3.13-.27-3.13-1.08.22,0,1.13.38,2,.38C12.59,26.85,18.37,5.73,30.25,1.13c-5.94,0-17.61,1.51-17.61,10.15,0,1.24.65,2.92.65,3.4-.05,0-.22-.16-.65-.49-2.16-1.73-2.49-2.92-2.49-4.54C10.16,1.4,22.74,0,31.65,0c6,0,6.05.86,6.32,1.03-.22,0-1.03-.32-1.94-.32-10.21,0-16.15,18.58-26.25,24.85Z"/></g></svg>