<?xml version="1.0" encoding="UTF-8"?><svg id="Calque_2" xmlns="http://www.w3.org/2000/svg" viewBox="0 0 30.69 30.34"><defs><style>.cls-1{fill:#fff;}</style></defs><g id="Calque_1-2"><path class="cls-1" d="M20.37,20.33c3.64,0,7.21-1.46,9.36-4.68.77.11.96.61.96,2.19,0,4.76-2.8,11.74-11.74,11.74-5.45,0-11.01-3.99-14.96-8.17l-.04.04c2.26,3.03,6.02,5.87,9.21,7.48-1.46.84-3.15,1.42-4.72,1.42-4.3,0-8.44-3.07-8.44-6.41,0-3.84,2.8-5.79,7.13-5.79,2.22,0,4.07.46,5.68,1.11v-.08c-1.42-.88-3.68-1.34-5.68-1.53-2.69-.27-4.99-1.88-4.99-5.26,0-2.15,1-4.03,2.95-4.83,1.92,1.42,4.83,2.19,7.21,2.19.23,0,.46-.04.65-.04v-.08c-2.11-.11-4.22-.73-5.22-1.38C8.48,2.99,12.81,0,17.95,0c4.14,0,7.98,2.49,7.98,7.86,0,4.3-2.84,8.86-7.98,9.74v.58c0,.61-.04,1.27-.11,1.92.84.15,1.69.23,2.53.23ZM19.72,2.46c-1.11,1.34-1.8,3.57-2.03,5.56h.08c1.19-1.57,1.92-3.99,2.03-5.56h-.08Z"/></g></svg>