<svg width="39" height="39" viewBox="0 0 39 39" fill="none" xmlns="http://www.w3.org/2000/svg">
<g clip-path="url(#clip0_1_8)">
<path d="M19.4993 38.9986C30.2685 38.9986 38.9986 30.2685 38.9986 19.4993C38.9986 8.73013 30.2685 0 19.4993 0C8.73013 0 0 8.73013 0 19.4993C0 30.2685 8.73013 38.9986 19.4993 38.9986Z" fill="white"/>
<path d="M23.7 14.7H15.3C14.8226 14.7 14.3648 14.8897 14.0272 15.2272C13.6896 15.5648 13.5 16.0226 13.5 16.5V22.5C13.5 22.9774 13.6896 23.4352 14.0272 23.7728C14.3648 24.1104 14.8226 24.3 15.3 24.3H23.7C24.1774 24.3 24.6352 24.1104 24.9728 23.7728C25.3104 23.4352 25.5 22.9774 25.5 22.5V16.5C25.5 16.0226 25.3104 15.5648 24.9728 15.2272C24.6352 14.8897 24.1774 14.7 23.7 14.7ZM23.298 15.9L19.5 18.75L15.702 15.9H23.298ZM23.7 23.1H15.3C15.1409 23.1 14.9883 23.0368 14.8757 22.9243C14.7632 22.8118 14.7 22.6591 14.7 22.5V16.65L19.14 19.98C19.2439 20.0579 19.3702 20.1 19.5 20.1C19.6298 20.1 19.7561 20.0579 19.86 19.98L24.3 16.65V22.5C24.3 22.6591 24.2368 22.8118 24.1243 22.9243C24.0117 23.0368 23.8591 23.1 23.7 23.1Z" fill="black"/>
</g>
<defs>
<clipPath id="clip0_1_8">
<rect width="39" height="39" fill="white"/>
</clipPath>
</defs>
</svg>
