<svg width="39" height="39" viewBox="0 0 39 39" fill="none" xmlns="http://www.w3.org/2000/svg">
<g clip-path="url(#clip0_1_8)">
<path d="M19.4993 38.9986C30.2685 38.9986 38.9986 30.2685 38.9986 19.4993C38.9986 8.73013 30.2685 0 19.4993 0C8.73013 0 0 8.73013 0 19.4993C0 30.2685 8.73013 38.9986 19.4993 38.9986Z" fill="white"/>
<path d="M25.8 12.3H13.2C12.4839 12.3 11.7972 12.5845 11.2908 13.0908C10.7845 13.5971 10.5 14.2839 10.5 15V24C10.5 24.7161 10.7845 25.4028 11.2908 25.9092C11.7972 26.4155 12.4839 26.7 13.2 26.7H25.8C26.5161 26.7 27.2028 26.4155 27.7092 25.9092C28.2155 25.4028 28.5 24.7161 28.5 24V15C28.5 14.2839 28.2155 13.5971 27.7092 13.0908C27.2028 12.5845 26.5161 12.3 25.8 12.3ZM25.197 14.1L19.5 18.375L13.803 14.1H25.197ZM25.8 24.9H13.2C12.9613 24.9 12.7324 24.8052 12.5636 24.6364C12.3948 24.4676 12.3 24.2387 12.3 24V15.225L18.96 20.22C19.1158 20.3368 19.3053 20.4 19.5 20.4C19.6947 20.4 19.8842 20.3368 20.04 20.22L26.7 15.225V24C26.7 24.2387 26.6052 24.4676 26.4364 24.6364C26.2676 24.8052 26.0387 24.9 25.8 24.9Z" fill="black"/>
</g>
<defs>
<clipPath id="clip0_1_8">
<rect width="39" height="39" fill="white"/>
</clipPath>
</defs>
</svg>
