<?xml version="1.0" encoding="utf-8" ?>
<svg baseProfile="tiny" height="100%" version="1.2" width="100%" xmlns="http://www.w3.org/2000/svg" xmlns:ev="http://www.w3.org/2001/xml-events" xmlns:xlink="http://www.w3.org/1999/xlink"><defs /><polygon fill="white" points="39.7204,66.7064 39.6382,66.7064 39.5559,66.7064 39.4737,66.7064 39.3914,66.7064 39.3092,66.7064 39.227,66.7064 39.1447,66.7064 39.0628,66.5865 39.0628,66.4663 39.1447,66.3465 39.227,66.3465 39.2272,66.3462 39.3092,66.2263 39.3914,66.2263 39.4737,66.2263 39.5559,66.2263 39.6382,66.2263 39.7204,66.2263 39.8026,66.2263 39.8849,66.2263 39.9671,66.2263 39.9674,66.226 40.0493,66.1061 40.1316,66.1061 40.2138,66.1061 40.2961,66.1061 40.2963,66.1058 40.3783,65.986 40.4605,65.986 40.5428,65.986 40.625,65.986 40.6253,65.9856 40.7072,65.8658 40.7895,65.8658 40.8717,65.8658 40.872,65.8654 40.9539,65.7456 41.0362,65.7456 41.1184,65.7456 41.1187,65.7452 41.2007,65.6254 41.2829,65.6254 41.2832,65.625 41.3651,65.5052 41.4474,65.5052 41.5296,65.5052 41.5299,65.5048 41.6118,65.385 41.6941,65.385 41.6943,65.3846 41.7763,65.2648 41.8586,65.2648 41.8588,65.2644 41.9408,65.1446 42.023,65.1446 42.0233,65.1442 42.1053,65.0244 42.1875,65.0244 42.1878,65.024 42.2697,64.9042 42.27,64.9038 42.352,64.784 42.4342,64.784 42.4345,64.7837 42.5164,64.6638 42.5167,64.6635 42.5987,64.5436 42.5989,64.5433 42.6809,64.4235 42.6812,64.4231 42.7632,64.3033 42.7634,64.3029 42.8454,64.1831 42.8457,64.1827 42.9276,64.0629 42.9279,64.0625 43.0099,63.9427 43.0101,63.9423 43.0921,63.8225 43.0924,63.8221 43.1743,63.7023 43.1746,63.7019 43.2566,63.5821 43.2568,63.5817 43.3388,63.4619 43.3391,63.4615 43.4211,63.3417 43.4213,63.3413 43.5033,63.2215 43.5035,63.2212 43.5035,63.101 43.5855,62.9811 43.5858,62.9808 43.6678,62.861 43.668,62.8606 43.668,62.7404 43.75,62.6206 43.7503,62.6202 43.8322,62.5004 43.8325,62.5 43.8325,62.3798 43.9145,62.26 43.9147,62.2596 43.9147,62.1394 43.9967,62.0196 43.997,62.0192 43.997,61.899 44.0789,61.7792 44.0792,61.7788 44.0792,61.6587 44.1612,61.5388 44.1614,61.5385 44.1614,61.4183 44.2434,61.2985 44.2437,61.2981 44.2437,61.1779 44.3257,61.0581 44.3259,61.0577 44.3259,60.9375 44.4079,60.8177 44.4082,60.8173 44.4082,60.6971 44.4082,60.5769 44.4901,60.4571 44.4904,60.4567 44.4904,60.3365 44.5724,60.2167 44.5726,60.2163 44.6546,60.0965 44.6549,60.0962 44.6549,59.976 44.7368,59.8561 44.7371,59.8558 44.8191,59.736 44.8193,59.7356 44.8193,59.6154 44.8191,59.615 44.7371,59.4952 44.7368,59.4948 44.6549,59.375 44.6546,59.3746 44.5726,59.2548 44.5724,59.2544 44.4901,59.2544 44.4082,59.1346 44.4079,59.1342 44.3259,59.0144 44.3257,59.014 44.2437,58.8942 44.2434,58.8939 44.1612,58.8939 44.0792,58.774 44.1612,58.6542 44.2434,58.6542 44.3257,58.6542 44.4076,58.774 44.4079,58.7744 44.4899,58.8942 44.4901,58.8946 44.5721,59.0144 44.5724,59.0148 44.6546,59.0148 44.6549,59.0144 44.6549,58.8942 44.6549,58.774 44.7368,58.6542 44.8188,58.774 44.8191,58.7744 44.9011,58.8942 44.9011,59.0144 44.9013,59.0148 44.9016,59.0144 44.9836,58.8946 44.9838,58.8942 44.9838,58.774 45.0658,58.6542 45.066,58.6538 45.066,58.5337 45.148,58.4138 45.1483,58.4135 45.1483,58.2933 45.2303,58.1735 45.2305,58.1731 45.2305,58.0529 45.3125,57.9331 45.3128,57.9327 45.3947,57.8129 45.395,57.8125 45.395,57.6923 45.395,57.5721 45.477,57.4523 45.4772,57.4519 45.5592,57.3321 45.5595,57.3317 45.5595,57.2115 45.6414,57.0917 45.6417,57.0913 45.6417,56.9712 45.7237,56.8513 45.7239,56.851 45.7239,56.7308 45.8059,56.611 45.8062,56.6106 45.8062,56.4904 45.8882,56.3706 45.8884,56.3702 45.8884,56.25 45.9704,56.1302 45.9707,56.1298 45.9707,56.0096 45.9707,55.8894 46.0526,55.7696 46.0529,55.7692 46.0529,55.649 46.1349,55.5292 46.1351,55.5288 46.1351,55.4087 46.2171,55.2888 46.2174,55.2885 46.2993,55.1686 46.2996,55.1683 46.2996,55.0481 46.3816,54.9283 46.3818,54.9279 46.3818,54.8077 46.4638,54.6879 46.4641,54.6875 46.5461,54.5677 46.5463,54.5673 46.6283,54.4475 46.6285,54.4471 46.6285,54.3269 46.7105,54.2071 46.7108,54.2067 46.7108,54.0865 46.7928,53.9667 46.793,53.9663 46.793,53.8462 46.875,53.7263 46.8753,53.726 46.8753,53.6058 46.9572,53.486 46.9575,53.4856 46.9575,53.3654 47.0395,53.2456 47.0397,53.2452 47.0397,53.125 47.1217,53.0052 47.122,53.0048 47.2039,52.885 47.2042,52.8846 47.2042,52.7644 47.2862,52.6446 47.2864,52.6442 47.2864,52.524 47.3684,52.4042 47.3687,52.4038 47.4507,52.284 47.4509,52.2837 47.4509,52.1635 47.5329,52.0436 47.5332,52.0433 47.5332,51.9231 47.5332,51.8029 47.6151,51.6831 47.6154,51.6827 47.6974,51.5629 47.6976,51.5625 47.6976,51.4423 47.7796,51.3225 47.7799,51.3221 47.7799,51.2019 47.8618,51.0821 47.8621,51.0817 47.8621,50.9615 47.9441,50.8417 47.9443,50.8413 47.9443,50.7212 48.0263,50.6013 48.0266,50.601 48.0266,50.4808 48.1086,50.361 48.1088,50.3606 48.1088,50.2404 48.1908,50.1206 48.191,50.1202 48.191,50.0 48.273,49.8802 48.2733,49.8798 48.3553,49.76 48.3555,49.7596 48.3555,49.6394 48.4375,49.5196 48.4378,49.5192 48.4378,49.399 48.5197,49.2792 48.52,49.2788 48.52,49.1587 48.602,49.0388 48.6022,49.0385 48.6022,48.9183 48.6842,48.7985 48.6845,48.7981 48.7664,48.6783 48.7667,48.6779 48.7667,48.5577 48.8487,48.4379 48.8489,48.4375 48.8489,48.3173 48.9309,48.1975 48.9312,48.1971 48.9312,48.0769 49.0132,47.9571 49.0134,47.9567 49.0954,47.8369 49.0957,47.8365 49.0957,47.7163 49.1776,47.5965 49.1779,47.5962 49.1779,47.476 49.2599,47.3561 49.2601,47.3558 49.3421,47.236 49.3424,47.2356 49.3424,47.1154 49.4243,46.9956 49.4246,46.9952 49.4246,46.875 49.5066,46.7552 49.5068,46.7548 49.5888,46.635 49.5891,46.6346 49.5891,46.5144 49.6711,46.3946 49.6713,46.3942 49.6713,46.274 49.7533,46.1542 49.7535,46.1538 49.7535,46.0337 49.8355,45.9138 49.8358,45.9135 49.9178,45.7936 49.918,45.7933 49.918,45.6731 50.0,45.5533 50.0003,45.5529 50.0003,45.4327 50.0822,45.3129 50.0825,45.3125 50.1645,45.1927 50.1647,45.1923 50.1647,45.0721 50.2467,44.9523 50.247,44.9519 50.3289,44.8321 50.3292,44.8317 50.3292,44.7115 50.4112,44.5917 50.4114,44.5913 50.4114,44.4712 50.4934,44.3513 50.4937,44.351 50.4937,44.2308 50.4934,44.2304 50.4932,44.2308 50.4112,44.3506 50.4109,44.351 50.3289,44.4708 50.3287,44.4712 50.2467,44.591 50.1645,44.591 50.1642,44.5913 50.0822,44.7112 50.082,44.7115 50.0,44.8314 49.9997,44.8317 49.9178,44.9515 49.8355,44.9515 49.8353,44.9519 49.7533,45.0717 49.753,45.0721 49.6711,45.1919 49.6708,45.1923 49.5888,45.3121 49.5886,45.3125 49.5066,45.4323 49.5063,45.4327 49.4243,45.5525 49.4241,45.5529 49.3421,45.6727 49.3418,45.6731 49.2599,45.7929 49.2596,45.7933 49.1776,45.9131 49.1774,45.9135 49.0954,46.0333 49.0951,46.0337 49.0132,46.1535 48.9312,46.0337 48.9312,45.9135 49.0132,45.7936 49.0134,45.7933 49.0954,45.6735 49.0957,45.6731 49.1776,45.5533 49.1779,45.5529 49.2599,45.4331 49.2601,45.4327 49.3421,45.3129 49.3424,45.3125 49.4243,45.1927 49.4246,45.1923 49.5066,45.0725 49.5068,45.0721 49.5888,44.9523 49.5891,44.9519 49.6711,44.8321 49.6713,44.8317 49.7533,44.7119 49.7535,44.7115 49.8355,44.5917 49.8358,44.5913 49.9178,44.4715 49.918,44.4712 50.0,44.3513 50.0822,44.3513 50.0825,44.351 50.1645,44.2311 50.1647,44.2308 50.2467,44.111 50.247,44.1106 50.3289,43.9908 50.3292,43.9904 50.4112,43.8706 50.4114,43.8702 50.4934,43.7504 50.4937,43.75 50.5757,43.6302 50.6579,43.6302 50.6582,43.6298 50.7401,43.51 50.7404,43.5096 50.7404,43.3894 50.8224,43.2696 50.8226,43.2692 50.9046,43.1494 50.9049,43.149 50.9049,43.0288 50.9868,42.909 50.9871,42.9087 50.9871,42.7885 51.0691,42.6686 51.0693,42.6683 51.0693,42.5481 51.1513,42.4283 51.1516,42.4279 51.1516,42.3077 51.2336,42.1879 51.2338,42.1875 51.2338,42.0673 51.3158,41.9475 51.316,41.9471 51.398,41.8273 51.3983,41.8269 51.3983,41.7067 51.4803,41.5869 51.4805,41.5865 51.5625,41.4667 51.5628,41.4663 51.5628,41.3462 51.6447,41.2263 51.645,41.226 51.645,41.1058 51.727,40.986 51.7272,40.9856 51.7272,40.8654 51.8092,40.7456 51.8095,40.7452 51.8095,40.625 51.8914,40.5052 51.8917,40.5048 51.8917,40.3846 51.9737,40.2648 51.9739,40.2644 52.0559,40.1446 52.0562,40.1442 52.0562,40.024 52.1382,39.9042 52.1384,39.9038 52.1384,39.7837 52.2204,39.6638 52.2207,39.6635 52.2207,39.5433 52.3026,39.4235 52.3029,39.4231 52.3849,39.3033 52.3851,39.3029 52.3851,39.1827 52.4671,39.0629 52.4674,39.0625 52.4674,38.9423 52.5493,38.8225 52.5496,38.8221 52.5496,38.7019 52.6316,38.5821 52.6318,38.5817 52.6318,38.4615 52.7138,38.3417 52.7141,38.3413 52.7961,38.2215 52.7963,38.2212 52.7963,38.101 52.8783,37.9811 52.8785,37.9808 52.8785,37.8606 52.9605,37.7408 52.9608,37.7404 52.9608,37.6202 53.0428,37.5004 53.043,37.5 53.043,37.3798 53.125,37.26 53.1253,37.2596 53.1253,37.1394 53.2072,37.0196 53.2075,37.0192 53.2895,36.8994 53.2897,36.899 53.2897,36.7788 53.3717,36.659 53.372,36.6587 53.372,36.5385 53.4539,36.4186 53.4542,36.4183 53.4542,36.2981 53.5362,36.1783 53.5364,36.1779 53.5364,36.0577 53.6184,35.9379 53.6187,35.9375 53.6187,35.8173 53.7007,35.6975 53.7009,35.6971 53.7009,35.5769 53.7829,35.4571 53.7832,35.4567 53.8651,35.3369 53.8654,35.3365 53.8654,35.2163 53.9474,35.0965 53.9476,35.0962 53.9476,34.976 54.0296,34.8561 54.0299,34.8558 54.1118,34.736 54.1121,34.7356 54.1121,34.6154 54.1941,34.4956 54.1943,34.4952 54.1943,34.375 54.1943,34.2548 54.2763,34.135 54.2766,34.1346 54.2766,34.0144 54.2766,33.8942 54.2766,33.774 54.2766,33.6538 54.2763,33.6535 54.1941,33.6535 54.1121,33.5337 54.1118,33.5333 54.0296,33.5333 53.9476,33.4135 53.9474,33.4131 53.8651,33.4131 53.7829,33.4131 53.7007,33.4131 53.6187,33.2933 53.6184,33.2929 53.5362,33.2929 53.4539,33.2929 53.3717,33.2929 53.2895,33.2929 53.2072,33.2929 53.125,33.2929 53.0428,33.2929 52.9605,33.2929 52.8783,33.2929 52.7961,33.2929 52.7138,33.2929 52.6316,33.2929 52.5493,33.2929 52.4671,33.2929 52.3849,33.2929 52.3026,33.2929 52.3024,33.2933 52.2204,33.4131 52.1382,33.4131 52.0559,33.4131 51.9737,33.4131 51.9734,33.4135 51.8914,33.5333 51.8092,33.5333 51.727,33.5333 51.6447,33.5333 51.6445,33.5337 51.5625,33.6535 51.4803,33.6535 51.48,33.6538 51.398,33.7737 51.3158,33.7737 51.3155,33.774 51.2336,33.8939 51.1513,33.8939 51.1511,33.8942 51.0691,34.014 50.9868,34.014 50.9866,34.0144 50.9046,34.1342 50.8224,34.1342 50.8221,34.1346 50.7401,34.2544 50.6579,34.2544 50.6576,34.2548 50.5757,34.3746 50.4934,34.3746 50.4932,34.375 50.4112,34.4948 50.4109,34.4952 50.3289,34.615 50.3287,34.6154 50.2467,34.7352 50.1645,34.7352 50.1642,34.7356 50.0822,34.8554 50.082,34.8558 50.0,34.9756 49.9997,34.976 49.9178,35.0958 49.9175,35.0962 49.8355,35.216 49.7533,35.216 49.753,35.2163 49.6711,35.3362 49.6708,35.3365 49.5888,35.4564 49.5886,35.4567 49.5066,35.5765 49.5063,35.5769 49.4243,35.6967 49.4241,35.6971 49.3421,35.8169 49.3418,35.8173 49.3418,35.9375 49.2599,36.0573 49.2596,36.0577 49.1776,36.1775 49.1774,36.1779 49.0954,36.2977 49.0951,36.2981 49.0132,36.4179 49.0129,36.4183 48.9309,36.5381 48.9307,36.5385 48.9307,36.6587 48.8487,36.7785 48.8484,36.7788 48.7664,36.8987 48.7662,36.899 48.7662,37.0192 48.6842,37.139 48.684,37.1394 48.602,37.2592 48.6017,37.2596 48.6017,37.3798 48.5197,37.4996 48.5195,37.5 48.4375,37.6198 48.4372,37.6202 48.4372,37.7404 48.3553,37.8602 48.355,37.8606 48.355,37.9808 48.273,38.1006 48.2728,38.101 48.2728,38.2212 48.1908,38.341 48.1905,38.3413 48.1905,38.4615 48.1086,38.5814 48.1083,38.5817 48.1083,38.7019 48.0263,38.8217 48.0261,38.8221 48.0261,38.9423 48.0261,39.0625 47.9441,39.1823 47.9438,39.1827 47.9438,39.3029 47.8618,39.4227 47.8616,39.4231 47.8616,39.5433 47.8616,39.6635 47.7796,39.7833 47.7793,39.7837 47.7793,39.9038 47.7793,40.024 47.6974,40.1439 47.6971,40.1442 47.6971,40.2644 47.6971,40.3846 47.6151,40.5044 47.6149,40.5048 47.6149,40.625 47.6149,40.7452 47.6149,40.8654 47.5329,40.9852 47.5326,40.9856 47.5326,41.1058 47.5326,41.226 47.5326,41.3462 47.5326,41.4663 47.4507,41.5862 47.4504,41.5865 47.4504,41.7067 47.4504,41.8269 47.4504,41.9471 47.4504,42.0673 47.4504,42.1875 47.4504,42.3077 47.3684,42.4275 47.3682,42.4279 47.3682,42.5481 47.3682,42.6683 47.3682,42.7885 47.3682,42.9087 47.3682,43.0288 47.3682,43.149 47.3682,43.2692 47.3682,43.3894 47.3682,43.5096 47.3682,43.6298 47.3682,43.75 47.3682,43.8702 47.3682,43.9904 47.3682,44.1106 47.3682,44.2308 47.3682,44.351 47.3682,44.4712 47.3682,44.5913 47.3682,44.7115 47.3682,44.8317 47.3684,44.8321 47.4504,44.9519 47.4504,45.0721 47.4504,45.1923 47.4504,45.3125 47.4504,45.4327 47.4504,45.5529 47.4504,45.6731 47.4504,45.7933 47.4504,45.9135 47.4504,46.0337 47.4504,46.1538 47.4504,46.274 47.4504,46.3942 47.4504,46.5144 47.4504,46.6346 47.4504,46.7548 47.4504,46.875 47.4504,46.9952 47.4504,47.1154 47.4504,47.2356 47.4504,47.3558 47.4504,47.476 47.4504,47.5962 47.4504,47.7163 47.4504,47.8365 47.4504,47.9567 47.4504,48.0769 47.4504,48.1971 47.3684,48.3169 47.3682,48.3173 47.3682,48.4375 47.3682,48.5577 47.3682,48.6779 47.3684,48.6783 47.3687,48.6779 47.4507,48.5581 47.4509,48.5577 47.5329,48.4379 47.5332,48.4375 47.6151,48.3177 47.6154,48.3173 47.6154,48.1971 47.6974,48.0773 47.6976,48.0769 47.7796,47.9571 47.7799,47.9567 47.8618,47.8369 47.8621,47.8365 47.9441,47.7167 48.0261,47.8365 48.0261,47.9567 47.9441,48.0765 47.9438,48.0769 47.8618,48.1967 47.8616,48.1971 47.8616,48.3173 47.7796,48.4371 47.7793,48.4375 47.6974,48.5573 47.6971,48.5577 47.6151,48.6775 47.6149,48.6779 47.6149,48.7981 47.5329,48.9179 47.5326,48.9183 47.4507,49.0381 47.4504,49.0385 47.4504,49.1587 47.3684,49.2785 47.3682,49.2788 47.3682,49.399 47.2862,49.5189 47.2859,49.5192 47.2859,49.6394 47.2039,49.7592 47.2037,49.7596 47.2037,49.8798 47.2037,50.0 47.1217,50.1198 47.1215,50.1202 47.1215,50.2404 47.0395,50.3602 47.0392,50.3606 47.0392,50.4808 47.0392,50.601 46.9572,50.7208 46.957,50.7212 46.957,50.8413 46.875,50.9612 46.8747,50.9615 46.8747,51.0817 46.8747,51.2019 46.7928,51.3217 46.7925,51.3221 46.7925,51.4423 46.7105,51.5621 46.7103,51.5625 46.7103,51.6827 46.6283,51.8025 46.628,51.8029 46.628,51.9231 46.5461,52.0429 46.5458,52.0433 46.5458,52.1635 46.5458,52.2837 46.4638,52.4035 46.4636,52.4038 46.4636,52.524 46.3816,52.6439 46.3813,52.6442 46.3813,52.7644 46.2993,52.8842 46.2991,52.8846 46.2991,53.0048 46.2991,53.125 46.2171,53.2448 46.2168,53.2452 46.2168,53.3654 46.2168,53.4856 46.2168,53.6058 46.2168,53.726 46.1349,53.8458 46.1346,53.8462 46.1349,53.8465 46.2168,53.9663 46.2168,54.0865 46.1349,54.2064 46.1346,54.2067 46.1346,54.3269 46.1346,54.4471 46.1346,54.5673 46.1346,54.6875 46.1349,54.6879 46.2168,54.8077 46.2168,54.9279 46.2168,55.0481 46.1349,55.1679 46.1346,55.1683 46.1346,55.2885 46.1346,55.4087 46.0526,55.5285 46.0524,55.5288 46.0524,55.649 45.9704,55.7689 45.8884,55.649 45.8884,55.5288 45.8884,55.4087 45.8884,55.2885 45.8884,55.1683 45.8884,55.0481 45.8884,54.9279 45.8884,54.8077 45.8884,54.6875 45.8884,54.5673 45.8884,54.4471 45.8882,54.4467 45.8062,54.3269 45.8062,54.2067 45.8059,54.2064 45.7239,54.0865 45.7237,54.0862 45.6417,53.9663 45.6417,53.8462 45.6414,53.8458 45.5595,53.726 45.5592,53.7256 45.4772,53.6058 45.477,53.6054 45.395,53.4856 45.3947,53.4852 45.3128,53.3654 45.3128,53.2452 45.3125,53.2448 45.2305,53.125 45.2303,53.1246 45.1483,53.0048 45.1483,52.8846 45.148,52.8842 45.066,52.7644 45.0658,52.764 44.9838,52.6442 44.9836,52.6439 44.9016,52.524 44.9016,52.4038 44.9013,52.4035 44.8193,52.2837 44.8191,52.2833 44.7371,52.1635 44.7371,52.0433 44.7368,52.0429 44.6549,51.9231 44.6549,51.8029 44.6546,51.8025 44.5726,51.6827 44.5724,51.6823 44.4904,51.5625 44.4904,51.4423 44.4901,51.4419 44.4082,51.3221 44.4082,51.2019 44.4079,51.2015 44.3259,51.0817 44.3259,50.9615 44.3257,50.9612 44.2437,50.8413 44.2437,50.7212 44.2434,50.7208 44.1614,50.601 44.1614,50.4808 44.1614,50.3606 44.1612,50.3602 44.0792,50.2404 44.0792,50.1202 44.0792,50.0 44.0789,49.9996 43.997,49.8798 43.997,49.7596 43.997,49.6394 43.9967,49.639 43.9147,49.5192 43.9147,49.399 43.9147,49.2788 43.9145,49.2785 43.8325,49.1587 43.8325,49.0385 43.8325,48.9183 43.8325,48.7981 43.8322,48.7977 43.7503,48.6779 43.7503,48.5577 43.7503,48.4375 43.7503,48.3173 43.75,48.3169 43.668,48.1971 43.668,48.0769 43.668,47.9567 43.668,47.8365 43.668,47.7163 43.6678,47.716 43.5858,47.5962 43.5858,47.476 43.5858,47.3558 43.5858,47.2356 43.5858,47.1154 43.5858,46.9952 43.5858,46.875 43.5858,46.7548 43.5858,46.6346 43.5858,46.5144 43.5858,46.3942 43.5858,46.274 43.5858,46.1538 43.5858,46.0337 43.5858,45.9135 43.5858,45.7933 43.5858,45.6731 43.5858,45.5529 43.5858,45.4327 43.5858,45.3125 43.5858,45.1923 43.5858,45.0721 43.5858,44.9519 43.5858,44.8317 43.5858,44.7115 43.5858,44.5913 43.5858,44.4712 43.6678,44.3513 43.668,44.351 43.668,44.2308 43.668,44.1106 43.668,43.9904 43.668,43.8702 43.75,43.7504 43.7503,43.75 43.7503,43.6298 43.7503,43.5096 43.7503,43.3894 43.7503,43.2692 43.8322,43.1494 43.8325,43.149 43.8325,43.0288 43.8325,42.9087 43.9145,42.7888 43.9147,42.7885 43.9147,42.6683 43.9147,42.5481 43.9967,42.4283 43.997,42.4279 43.997,42.3077 43.997,42.1875 44.0789,42.0677 44.0792,42.0673 44.0792,41.9471 44.0792,41.8269 44.1612,41.7071 44.1614,41.7067 44.1614,41.5865 44.2434,41.4667 44.2437,41.4663 44.2437,41.3462 44.2437,41.226 44.3257,41.1061 44.3259,41.1058 44.3259,40.9856 44.4079,40.8658 44.4082,40.8654 44.4082,40.7452 44.4901,40.6254 44.4904,40.625 44.4904,40.5048 44.5724,40.385 44.5726,40.3846 44.5726,40.2644 44.6546,40.1446 44.6549,40.1442 44.7368,40.0244 44.7371,40.024 44.7371,39.9038 44.8191,39.784 44.8193,39.7837 44.8193,39.6635 44.9013,39.5436 44.9016,39.5433 44.9836,39.4235 44.9838,39.4231 44.9838,39.3029 45.0658,39.1831 45.066,39.1827 45.148,39.0629 45.1483,39.0625 45.1483,38.9423 45.2303,38.8225 45.2305,38.8221 45.3125,38.7023 45.3128,38.7019 45.3947,38.5821 45.395,38.5817 45.395,38.4615 45.477,38.3417 45.4772,38.3413 45.5592,38.2215 45.5595,38.2212 45.6414,38.1013 45.6417,38.101 45.6417,37.9808 45.7237,37.861 45.7239,37.8606 45.8059,37.7408 45.8062,37.7404 45.8882,37.6206 45.8884,37.6202 45.9704,37.5004 45.9707,37.5 46.0526,37.3802 46.0529,37.3798 46.1349,37.26 46.1351,37.2596 46.2171,37.1398 46.2174,37.1394 46.2993,37.0196 46.2996,37.0192 46.3816,36.8994 46.3818,36.899 46.4638,36.7792 46.4641,36.7788 46.5461,36.659 46.5463,36.6587 46.5463,36.5385 46.6283,36.4186 46.7105,36.4186 46.7108,36.4183 46.7928,36.2985 46.793,36.2981 46.875,36.1783 46.8753,36.1779 46.9572,36.0581 46.9575,36.0577 47.0395,35.9379 47.1217,35.9379 47.122,35.9375 47.2039,35.8177 47.2042,35.8173 47.2862,35.6975 47.2864,35.6971 47.3684,35.5773 47.4507,35.5773 47.4509,35.5769 47.5329,35.4571 47.5332,35.4567 47.6151,35.3369 47.6154,35.3365 47.6974,35.2167 47.7796,35.2167 47.7799,35.2163 47.8618,35.0965 47.8621,35.0962 47.9441,34.9763 48.0263,34.9763 48.0266,34.976 48.1086,34.8561 48.1908,34.8561 48.191,34.8558 48.273,34.736 48.3553,34.736 48.3555,34.7356 48.4375,34.6158 48.4378,34.6154 48.5197,34.4956 48.602,34.4956 48.6022,34.4952 48.6842,34.3754 48.7664,34.3754 48.7667,34.375 48.8487,34.2552 48.9309,34.2552 48.9312,34.2548 49.0132,34.135 49.0954,34.135 49.0957,34.1346 49.1776,34.0148 49.2599,34.0148 49.2601,34.0144 49.3421,33.8946 49.4243,33.8946 49.4246,33.8942 49.5066,33.7744 49.5888,33.7744 49.6711,33.7744 49.6713,33.774 49.7533,33.6542 49.8355,33.6542 49.8358,33.6538 49.9178,33.534 50.0,33.534 50.0822,33.534 50.0825,33.5337 50.1645,33.4138 50.2467,33.4138 50.3289,33.4138 50.4112,33.4138 50.4114,33.4135 50.4934,33.2936 50.5757,33.2936 50.5759,33.2933 50.6579,33.1735 50.7401,33.1735 50.8224,33.1735 50.9046,33.1735 50.9868,33.1735 50.9871,33.1731 51.0691,33.0533 51.1513,33.0533 51.2336,33.0533 51.3158,33.0533 51.316,33.0529 51.398,32.9331 51.4803,32.9331 51.5625,32.9331 51.6447,32.9331 51.727,32.9331 51.8092,32.9331 51.8095,32.9327 51.8914,32.8129 51.9737,32.8129 52.0559,32.8129 52.1382,32.8129 52.2204,32.8129 52.3026,32.8129 52.3849,32.8129 52.4671,32.8129 52.5493,32.8129 52.5496,32.8125 52.6316,32.6927 52.7138,32.6927 52.7961,32.6927 52.8783,32.6927 52.9605,32.6927 53.0428,32.6927 53.125,32.6927 53.2072,32.6927 53.2895,32.6927 53.3717,32.6927 53.4539,32.6927 53.5362,32.6927 53.6184,32.6927 53.7007,32.6927 53.7829,32.6927 53.8651,32.6927 53.9474,32.6927 54.0296,32.6927 54.1118,32.6927 54.1941,32.6927 54.2763,32.6927 54.3586,32.6927 54.4408,32.6927 54.523,32.6927 54.6053,32.6927 54.6875,32.6927 54.7697,32.6927 54.852,32.6927 54.9342,32.6927 55.0164,32.6927 55.0987,32.6927 55.1809,32.6927 55.2632,32.6927 55.3454,32.6927 55.4276,32.6927 55.5099,32.6927 55.5921,32.6927 55.6743,32.6927 55.7566,32.6927 55.8388,32.6927 55.8391,32.6923 55.9211,32.5725 56.0033,32.5725 56.0855,32.5725 56.1678,32.5725 56.25,32.5725 56.3322,32.5725 56.4145,32.5725 56.4967,32.5725 56.5789,32.5725 56.6612,32.5725 56.7434,32.5725 56.8257,32.5725 56.9079,32.5725 56.9901,32.5725 57.0724,32.5725 57.1546,32.5725 57.2368,32.5725 57.3191,32.5725 57.4013,32.5725 57.4836,32.5725 57.5658,32.5725 57.648,32.5725 57.7303,32.5725 57.8125,32.5725 57.8947,32.5725 57.977,32.5725 58.0592,32.5725 58.1414,32.5725 58.2237,32.5725 58.3059,32.5725 58.3882,32.5725 58.4704,32.5725 58.5526,32.5725 58.6349,32.5725 58.7171,32.5725 58.7993,32.5725 58.7996,32.5721 58.8816,32.4523 58.9638,32.4523 59.0461,32.4523 59.1283,32.4523 59.2103,32.5721 59.2105,32.5725 59.2925,32.6923 59.2105,32.8121 59.2103,32.8125 59.1283,32.9323 59.0461,32.9323 58.9638,32.9323 58.8816,32.9323 58.7993,32.9323 58.7171,32.9323 58.6349,32.9323 58.5526,32.9323 58.5524,32.9327 58.4704,33.0525 58.3882,33.0525 58.3059,33.0525 58.2237,33.0525 58.1414,33.0525 58.1412,33.0529 58.0592,33.1727 57.977,33.1727 57.8947,33.1727 57.8125,33.1727 57.8122,33.1731 57.7303,33.2929 57.648,33.2929 57.6478,33.2933 57.5658,33.4131 57.4836,33.4131 57.4013,33.4131 57.4011,33.4135 57.3191,33.5333 57.3188,33.5337 57.2368,33.6535 57.1546,33.6535 57.1543,33.6538 57.0724,33.7737 57.0721,33.774 56.9901,33.8939 56.9079,33.8939 56.9076,33.8942 56.8257,34.014 56.8254,34.0144 56.7434,34.1342 56.7432,34.1346 56.6612,34.2544 56.6609,34.2548 56.5789,34.3746 56.5787,34.375 56.5787,34.4952 56.4967,34.615 56.4965,34.6154 56.4145,34.7352 56.4142,34.7356 56.3322,34.8554 56.332,34.8558 56.332,34.976 56.25,35.0958 56.2497,35.0962 56.1678,35.216 56.1675,35.2163 56.1675,35.3365 56.0855,35.4564 56.0853,35.4567 56.0853,35.5769 56.0033,35.6967 56.003,35.6971 56.003,35.8173 55.9211,35.9371 55.9208,35.9375 55.8388,36.0573 55.8386,36.0577 55.8386,36.1779 55.7566,36.2977 55.7563,36.2981 55.7563,36.4183 55.6743,36.5381 55.6741,36.5385 55.6741,36.6587 55.5921,36.7785 55.5918,36.7788 55.5918,36.899 55.5099,37.0189 55.5096,37.0192 55.5096,37.1394 55.4276,37.2592 55.4274,37.2596 55.3454,37.3794 55.3451,37.3798 55.3451,37.5 55.2632,37.6198 55.2629,37.6202 55.2629,37.7404 55.1809,37.8602 55.1807,37.8606 55.0987,37.9804 55.0984,37.9808 55.0984,38.101 55.0164,38.2208 55.0162,38.2212 55.0162,38.3413 54.9342,38.4612 54.934,38.4615 54.934,38.5817 54.852,38.7015 54.8517,38.7019 54.8517,38.8221 54.7697,38.9419 54.7695,38.9423 54.7695,39.0625 54.6875,39.1823 54.6872,39.1827 54.6872,39.3029 54.6053,39.4227 54.605,39.4231 54.605,39.5433 54.523,39.6631 54.5228,39.6635 54.4408,39.7833 54.4405,39.7837 54.4405,39.9038 54.3586,40.0237 54.3583,40.024 54.3583,40.1442 54.2763,40.264 54.2761,40.2644 54.2761,40.3846 54.1941,40.5044 54.1938,40.5048 54.1938,40.625 54.1118,40.7448 54.1116,40.7452 54.1116,40.8654 54.0296,40.9852 54.0293,40.9856 53.9474,41.1054 53.9471,41.1058 53.9471,41.226 53.8651,41.3458 53.8649,41.3462 53.8649,41.4663 53.7829,41.5862 53.7826,41.5865 53.7826,41.7067 53.7007,41.8265 53.7004,41.8269 53.7004,41.9471 53.6184,42.0669 53.6182,42.0673 53.6182,42.1875 53.5362,42.3073 53.5359,42.3077 53.4539,42.4275 53.4537,42.4279 53.4537,42.5481 53.3717,42.6679 53.3715,42.6683 53.3715,42.7885 53.2895,42.9083 53.2892,42.9087 53.2892,43.0288 53.2072,43.1487 53.207,43.149 53.207,43.2692 53.125,43.389 53.1247,43.3894 53.1247,43.5096 53.0428,43.6294 53.0425,43.6298 53.0425,43.75 52.9605,43.8698 52.9603,43.8702 52.9603,43.9904 52.8783,44.1102 52.878,44.1106 52.878,44.2308 52.7961,44.3506 52.7958,44.351 52.7138,44.4708 52.7136,44.4712 52.7136,44.5913 52.6316,44.7112 52.6313,44.7115 52.6313,44.8317 52.5493,44.9515 52.5491,44.9519 52.5491,45.0721 52.4671,45.1919 52.4668,45.1923 52.4668,45.3125 52.3849,45.4323 52.3846,45.4327 52.3846,45.5529 52.3026,45.6727 52.3024,45.6731 52.3024,45.7933 52.2204,45.9131 52.2201,45.9135 52.1382,46.0333 52.1379,46.0337 52.1379,46.1538 52.0559,46.2737 52.0557,46.274 52.0557,46.3942 51.9737,46.514 51.9734,46.5144 51.9734,46.6346 51.8914,46.7544 51.8912,46.7548 51.8092,46.8746 51.809,46.875 51.809,46.9952 51.727,47.115 51.7267,47.1154 51.7267,47.2356 51.6447,47.3554 51.6445,47.3558 51.6445,47.476 51.5625,47.5958 51.5622,47.5962 51.5622,47.7163 51.4803,47.8362 51.48,47.8365 51.398,47.9564 51.3978,47.9567 51.3978,48.0769 51.3158,48.1967 51.3155,48.1971 51.3155,48.3173 51.2336,48.4371 51.2333,48.4375 51.1513,48.5573 51.1511,48.5577 51.1511,48.6779 51.0691,48.7977 51.0688,48.7981 51.0688,48.9183 50.9868,49.0381 50.9866,49.0385 50.9866,49.1587 50.9046,49.2785 50.9043,49.2788 50.9043,49.399 50.8224,49.5189 50.8221,49.5192 50.7401,49.639 50.7399,49.6394 50.7399,49.7596 50.6579,49.8794 50.6576,49.8798 50.6576,50.0 50.5757,50.1198 50.5754,50.1202 50.5754,50.2404 50.4934,50.3602 50.4932,50.3606 50.4932,50.4808 50.4112,50.6006 50.4109,50.601 50.4109,50.7212 50.3289,50.841 50.3287,50.8413 50.2467,50.9612 50.2465,50.9615 50.2465,51.0817 50.1645,51.2015 50.1642,51.2019 50.1642,51.3221 50.0822,51.4419 50.082,51.4423 50.082,51.5625 50.0,51.6823 49.9997,51.6827 49.9997,51.8029 49.9178,51.9227 49.9175,51.9231 49.9175,52.0433 49.8355,52.1631 49.8353,52.1635 49.8353,52.2837 49.7533,52.4035 49.753,52.4038 49.753,52.524 49.6711,52.6439 49.6708,52.6442 49.5888,52.764 49.5886,52.7644 49.5886,52.8846 49.5066,53.0044 49.5063,53.0048 49.5063,53.125 49.4243,53.2448 49.4241,53.2452 49.4241,53.3654 49.3421,53.4852 49.3418,53.4856 49.2599,53.6054 49.2596,53.6058 49.2596,53.726 49.1776,53.8458 49.1774,53.8462 49.1774,53.9663 49.0954,54.0862 49.0951,54.0865 49.0951,54.2067 49.0132,54.3265 49.0129,54.3269 49.0129,54.4471 48.9309,54.5669 48.9307,54.5673 48.9307,54.6875 48.8487,54.8073 48.8484,54.8077 48.7664,54.9275 48.7662,54.9279 48.7662,55.0481 48.6842,55.1679 48.684,55.1683 48.684,55.2885 48.602,55.4083 48.6017,55.4087 48.5197,55.5285 48.5195,55.5288 48.5195,55.649 48.4375,55.7689 48.4372,55.7692 48.4372,55.8894 48.3553,56.0092 48.355,56.0096 48.355,56.1298 48.273,56.2496 48.2728,56.25 48.2728,56.3702 48.1908,56.49 48.1905,56.4904 48.1905,56.6106 48.1086,56.7304 48.1083,56.7308 48.0263,56.8506 48.0261,56.851 48.0261,56.9712 47.9441,57.091 47.9438,57.0913 47.8618,57.2112 47.8616,57.2115 47.8616,57.3317 47.7796,57.4515 47.7793,57.4519 47.7793,57.5721 47.6974,57.6919 47.6971,57.6923 47.6971,57.8125 47.6151,57.9323 47.6149,57.9327 47.6149,58.0529 47.5329,58.1727 47.5326,58.1731 47.5326,58.2933 47.4507,58.4131 47.4504,58.4135 47.4504,58.5337 47.3684,58.6535 47.3682,58.6538 47.2862,58.7737 47.2859,58.774 47.2859,58.8942 47.2039,59.014 47.2037,59.0144 47.2037,59.1346 47.1217,59.2544 47.1215,59.2548 47.1215,59.375 47.0395,59.4948 47.0392,59.4952 47.0392,59.6154 46.9572,59.7352 46.957,59.7356 46.957,59.8558 46.875,59.9756 46.8747,59.976 46.8747,60.0962 46.7928,60.216 46.7925,60.2163 46.7105,60.3362 46.7103,60.3365 46.7103,60.4567 46.6283,60.5765 46.628,60.5769 46.628,60.6971 46.5461,60.8169 46.5458,60.8173 46.4638,60.9371 46.4636,60.9375 46.4636,61.0577 46.3816,61.1775 46.3813,61.1779 46.2993,61.2977 46.2991,61.2981 46.2991,61.4183 46.2171,61.5381 46.2168,61.5385 46.1349,61.6583 46.1346,61.6587 46.1349,61.659 46.2171,61.659 46.2993,61.659 46.2996,61.6587 46.3816,61.5388 46.3818,61.5385 46.4638,61.4186 46.5461,61.4186 46.6283,61.4186 46.6285,61.4183 46.7105,61.2985 46.7928,61.2985 46.793,61.2981 46.875,61.1783 46.9572,61.1783 46.9575,61.1779 47.0395,61.0581 47.1217,61.0581 47.2039,61.0581 47.2042,61.0577 47.2862,60.9379 47.3684,60.9379 47.4507,60.9379 47.5329,60.9379 47.5332,60.9375 47.6151,60.8177 47.6974,60.8177 47.7796,60.8177 47.8618,60.8177 47.9441,60.8177 48.0263,60.8177 48.0266,60.8173 48.1086,60.6975 48.1908,60.6975 48.273,60.6975 48.3553,60.6975 48.4375,60.6975 48.5197,60.6975 48.602,60.6975 48.6842,60.6975 48.7664,60.6975 48.8487,60.6975 48.9309,60.6975 49.0132,60.6975 49.0954,60.6975 49.1776,60.6975 49.2599,60.6975 49.3421,60.6975 49.4243,60.6975 49.5066,60.6975 49.5888,60.6975 49.6711,60.6975 49.7533,60.6975 49.8355,60.6975 49.9178,60.6975 50.0,60.6975 50.0822,60.6975 50.1645,60.6975 50.2467,60.6975 50.3289,60.6975 50.4112,60.6975 50.4934,60.6975 50.5757,60.6975 50.6579,60.6975 50.7401,60.6975 50.8224,60.6975 50.9046,60.6975 50.9868,60.6975 51.0691,60.6975 51.1513,60.6975 51.2336,60.6975 51.3158,60.6975 51.398,60.6975 51.4803,60.6975 51.5625,60.6975 51.6447,60.6975 51.727,60.6975 51.8092,60.6975 51.8914,60.6975 51.9737,60.6975 52.0559,60.6975 52.1382,60.6975 52.2204,60.6975 52.3026,60.6975 52.3849,60.6975 52.4671,60.6975 52.5493,60.6975 52.6316,60.6975 52.7138,60.6975 52.7961,60.6975 52.8783,60.6975 52.9605,60.6975 53.0428,60.6975 53.125,60.6975 53.2072,60.6975 53.2895,60.6975 53.3717,60.6975 53.4539,60.6975 53.5362,60.6975 53.6184,60.6975 53.7007,60.6975 53.7829,60.6975 53.8651,60.6975 53.9474,60.6975 54.0296,60.6975 54.1118,60.6975 54.1941,60.6975 54.2763,60.6975 54.3586,60.6975 54.4408,60.6975 54.523,60.6975 54.605,60.8173 54.6053,60.8177 54.6875,60.8177 54.7697,60.8177 54.852,60.8177 54.9342,60.8177 55.0164,60.8177 55.0987,60.8177 55.1809,60.8177 55.2632,60.8177 55.3454,60.8177 55.4274,60.9375 55.4276,60.9379 55.5099,60.9379 55.5921,60.9379 55.6743,60.9379 55.7566,60.9379 55.8388,60.9379 55.9211,60.9379 56.0033,60.9379 56.0853,61.0577 56.0855,61.0581 56.1678,61.0581 56.25,61.0581 56.3322,61.0581 56.4145,61.0581 56.4967,61.0581 56.5789,61.0581 56.6612,61.0581 56.7432,61.1779 56.7434,61.1783 56.8257,61.1783 56.9079,61.1783 56.9901,61.1783 57.0724,61.1783 57.1546,61.1783 57.2368,61.1783 57.3191,61.1783 57.4013,61.1783 57.4833,61.2981 57.4836,61.2985 57.5658,61.2985 57.648,61.2985 57.7303,61.2985 57.8125,61.2985 57.8947,61.2985 57.977,61.2985 58.0592,61.2985 58.1414,61.2985 58.2237,61.2985 58.3059,61.2985 58.3882,61.2985 58.4704,61.2985 58.5526,61.2985 58.6349,61.2985 58.7171,61.2985 58.7993,61.2985 58.8816,61.2985 58.9638,61.2985 59.0461,61.2985 59.1283,61.2985 59.2105,61.2985 59.2928,61.2985 59.375,61.2985 59.4572,61.2985 59.5395,61.2985 59.5397,61.2981 59.6217,61.1783 59.7039,61.1783 59.7862,61.1783 59.8684,61.1783 59.9507,61.1783 60.0329,61.1783 60.0332,61.1779 60.1151,61.0581 60.1974,61.0581 60.2796,61.0581 60.2799,61.0577 60.3618,60.9379 60.4441,60.9379 60.5263,60.9379 60.5266,60.9375 60.6086,60.8177 60.6908,60.8177 60.773,60.8177 60.7733,60.8173 60.8553,60.6975 60.9375,60.6975 60.9378,60.6971 61.0197,60.5773 61.102,60.5773 61.1022,60.5769 61.1842,60.4571 61.2664,60.4571 61.2667,60.4567 61.3487,60.3369 61.4309,60.3369 61.4312,60.3365 61.5132,60.2167 61.5134,60.2163 61.5954,60.0965 61.6776,60.0965 61.6779,60.0962 61.7599,59.9763 61.7601,59.976 61.8421,59.8561 61.9243,59.8561 61.9246,59.8558 62.0066,59.736 62.0068,59.7356 62.0888,59.6158 62.0891,59.6154 62.1711,59.4956 62.1713,59.4952 62.2533,59.3754 62.3355,59.3754 62.3358,59.375 62.4178,59.2552 62.418,59.2548 62.5,59.135 62.5003,59.1346 62.5822,59.0148 62.5825,59.0144 62.6645,58.8946 62.6647,58.8942 62.7467,58.7744 62.747,58.774 62.747,58.6538 62.8289,58.534 62.8292,58.5337 62.9112,58.4138 62.9114,58.4135 62.9934,58.2936 62.9937,58.2933 62.9937,58.1731 63.0757,58.0533 63.0759,58.0529 63.1579,57.9331 63.1582,57.9327 63.1582,57.8125 63.2401,57.6927 63.2404,57.6923 63.3224,57.5725 63.3226,57.5721 63.3226,57.4519 63.4046,57.3321 63.4049,57.3317 63.4049,57.2115 63.4868,57.0917 63.4871,57.0913 63.4871,56.9712 63.5691,56.8513 63.5693,56.851 63.5693,56.7308 63.6513,56.611 63.6516,56.6106 63.6516,56.4904 63.7336,56.3706 63.7338,56.3702 63.7338,56.25 63.7338,56.1298 63.8158,56.01 63.816,56.0096 63.816,55.8894 63.816,55.7692 63.898,55.6494 63.8983,55.649 63.8983,55.5288 63.8983,55.4087 63.8983,55.2885 63.8983,55.1683 63.9803,55.0485 63.9805,55.0481 63.9805,54.9279 63.9805,54.8077 63.9805,54.6875 63.9805,54.5673 64.0625,54.4475 64.0628,54.4471 64.0628,54.3269 64.0628,54.2067 64.0628,54.0865 64.0628,53.9663 64.1447,53.8465 64.145,53.8462 64.227,53.7263 64.309,53.8462 64.309,53.9663 64.309,54.0865 64.309,54.2067 64.309,54.3269 64.309,54.4471 64.309,54.5673 64.309,54.6875 64.227,54.8073 64.2267,54.8077 64.2267,54.9279 64.2267,55.0481 64.2267,55.1683 64.2267,55.2885 64.2267,55.4087 64.1447,55.5285 64.1445,55.5288 64.1445,55.649 64.1445,55.7692 64.1445,55.8894 64.0625,56.0092 64.0622,56.0096 64.0622,56.1298 64.0622,56.25 64.0622,56.3702 63.9803,56.49 63.98,56.4904 63.98,56.6106 63.98,56.7308 63.898,56.8506 63.8978,56.851 63.8978,56.9712 63.8978,57.0913 63.8158,57.2112 63.8155,57.2115 63.8155,57.3317 63.8155,57.4519 63.7336,57.5717 63.7333,57.5721 63.7333,57.6923 63.7333,57.8125 63.6513,57.9323 63.6511,57.9327 63.6511,58.0529 63.6511,58.1731 63.5691,58.2929 63.5688,58.2933 63.5688,58.4135 63.4868,58.5333 63.4866,58.5337 63.4866,58.6538 63.4046,58.7737 63.4043,58.774 63.4043,58.8942 63.3224,59.014 63.3221,59.0144 63.3221,59.1346 63.2401,59.2544 63.2399,59.2548 63.2399,59.375 63.1579,59.4948 63.1576,59.4952 63.1576,59.6154 63.0757,59.7352 63.0754,59.7356 63.0754,59.8558 62.9934,59.9756 62.9932,59.976 62.9112,60.0958 62.9109,60.0962 62.9109,60.2163 62.8289,60.3362 62.8287,60.3365 62.8287,60.4567 62.7467,60.5765 62.7465,60.5769 62.6645,60.6967 62.6642,60.6971 62.5822,60.8169 62.582,60.8173 62.582,60.9375 62.5,61.0573 62.4997,61.0577 62.4178,61.1775 62.4175,61.1779 62.3355,61.2977 62.3353,61.2981 62.3353,61.4183 62.2533,61.5381 62.253,61.5385 62.1711,61.6583 62.1708,61.6587 62.0888,61.7785 62.0886,61.7788 62.0066,61.8987 62.0063,61.899 61.9243,62.0189 61.9241,62.0192 61.8421,62.139 61.8418,62.1394 61.7599,62.2592 61.7596,62.2596 61.6776,62.3794 61.6774,62.3798 61.5954,62.4996 61.5951,62.5 61.5132,62.6198 61.5129,62.6202 61.4309,62.74 61.4307,62.7404 61.3487,62.8602 61.3484,62.8606 61.2664,62.9804 61.2662,62.9808 61.1842,63.1006 61.184,63.101 61.102,63.2208 61.0197,63.2208 61.0195,63.2212 60.9375,63.341 60.9372,63.3413 60.8553,63.4612 60.773,63.4612 60.7728,63.4615 60.6908,63.5814 60.6905,63.5817 60.6086,63.7015 60.6083,63.7019 60.5263,63.8217 60.4441,63.8217 60.4438,63.8221 60.3618,63.9419 60.2796,63.9419 60.2793,63.9423 60.1974,64.0621 60.1971,64.0625 60.1151,64.1823 60.0329,64.1823 60.0326,64.1827 59.9507,64.3025 59.8684,64.3025 59.8682,64.3029 59.7862,64.4227 59.7039,64.4227 59.7037,64.4231 59.6217,64.5429 59.5395,64.5429 59.5392,64.5433 59.4572,64.6631 59.375,64.6631 59.3747,64.6635 59.2928,64.7833 59.2105,64.7833 59.2103,64.7837 59.1283,64.9035 59.0461,64.9035 58.9638,64.9035 58.9636,64.9038 58.8816,65.0237 58.7993,65.0237 58.7171,65.0237 58.7168,65.024 58.6349,65.1439 58.5526,65.1439 58.4704,65.1439 58.3882,65.1439 58.3879,65.1442 58.3059,65.264 58.2237,65.264 58.1414,65.264 58.0592,65.264 58.059,65.2644 57.977,65.3842 57.8947,65.3842 57.8125,65.3842 57.7303,65.3842 57.648,65.3842 57.6478,65.3846 57.5658,65.5044 57.4836,65.5044 57.4013,65.5044 57.3191,65.5044 57.2368,65.5044 57.1546,65.5044 57.0724,65.5044 56.9901,65.5044 56.9079,65.5044 56.8257,65.5044 56.7434,65.5044 56.6612,65.5044 56.5789,65.5044 56.4967,65.5044 56.4145,65.5044 56.3322,65.5044 56.25,65.5044 56.1678,65.5044 56.0855,65.5044 56.0033,65.5044 55.9211,65.5044 55.8388,65.5044 55.7568,65.3846 55.7566,65.3842 55.6743,65.3842 55.5921,65.3842 55.5099,65.3842 55.4276,65.3842 55.3457,65.2644 55.3454,65.264 55.2632,65.264 55.1809,65.264 55.0987,65.264 55.0167,65.1442 55.0164,65.1439 54.9342,65.1439 54.852,65.1439 54.77,65.024 54.7697,65.0237 54.6875,65.0237 54.6053,65.0237 54.5233,64.9038 54.523,64.9035 54.4408,64.9035 54.3586,64.9035 54.2766,64.7837 54.2763,64.7833 54.1941,64.7833 54.1121,64.6635 54.1118,64.6631 54.0296,64.6631 53.9476,64.5433 53.9474,64.5429 53.8651,64.5429 53.7832,64.4231 53.7829,64.4227 53.7007,64.4227 53.6187,64.3029 53.6184,64.3025 53.5362,64.3025 53.4542,64.1827 53.4539,64.1823 53.3717,64.1823 53.2897,64.0625 53.2895,64.0621 53.2072,64.0621 53.1253,63.9423 53.125,63.9419 53.043,63.8221 53.0428,63.8217 52.9605,63.8217 52.8785,63.7019 52.8783,63.7015 52.7961,63.7015 52.7141,63.5817 52.7138,63.5814 52.6316,63.5814 52.5496,63.4615 52.5493,63.4612 52.4674,63.3413 52.4671,63.341 52.3849,63.341 52.3029,63.2212 52.3026,63.2208 52.2207,63.101 52.2204,63.1006 52.1382,63.1006 52.0562,62.9808 52.0559,62.9804 51.9739,62.8606 51.9737,62.8602 51.8914,62.8602 51.8095,62.7404 51.8092,62.74 51.7272,62.6202 51.727,62.6198 51.6447,62.6198 51.5628,62.5 51.5625,62.4996 51.4803,62.4996 51.3983,62.3798 51.398,62.3794 51.316,62.2596 51.3158,62.2592 51.2336,62.2592 51.1516,62.1394 51.1513,62.139 51.0693,62.0192 51.0691,62.0189 50.9868,62.0189 50.9049,61.899 50.9046,61.8987 50.8224,61.8987 50.7404,61.7788 50.7401,61.7785 50.6579,61.7785 50.5759,61.6587 50.5757,61.6583 50.4934,61.6583 50.4112,61.6583 50.3292,61.5385 50.3289,61.5381 50.2467,61.5381 50.1645,61.5381 50.0825,61.4183 50.0822,61.4179 50.0,61.4179 49.9178,61.4179 49.8358,61.2981 49.8355,61.2977 49.7533,61.2977 49.6711,61.2977 49.5888,61.2977 49.5068,61.1779 49.5066,61.1775 49.4243,61.1775 49.3421,61.1775 49.2599,61.1775 49.1776,61.1775 49.0954,61.1775 49.0132,61.1775 48.9309,61.1775 48.8487,61.1775 48.7667,61.0577 48.7664,61.0573 48.6842,61.0573 48.602,61.0573 48.5197,61.0573 48.4375,61.0573 48.3553,61.0573 48.273,61.0573 48.2728,61.0577 48.1908,61.1775 48.1086,61.1775 48.0263,61.1775 47.9441,61.1775 47.8618,61.1775 47.7796,61.1775 47.6974,61.1775 47.6151,61.1775 47.6149,61.1779 47.5329,61.2977 47.4507,61.2977 47.3684,61.2977 47.3682,61.2981 47.2862,61.4179 47.2039,61.4179 47.1217,61.4179 47.0395,61.4179 47.0392,61.4183 46.9572,61.5381 46.875,61.5381 46.8747,61.5385 46.7928,61.6583 46.7105,61.6583 46.6283,61.6583 46.628,61.6587 46.5461,61.7785 46.4638,61.7785 46.4636,61.7788 46.3816,61.8987 46.2993,61.8987 46.2991,61.899 46.2171,62.0189 46.1349,62.0189 46.1346,62.0192 46.0526,62.139 45.9704,62.139 45.9701,62.1394 45.8882,62.2592 45.8059,62.2592 45.8057,62.2596 45.7237,62.3794 45.6414,62.3794 45.6412,62.3798 45.5592,62.4996 45.559,62.5 45.477,62.6198 45.3947,62.6198 45.3945,62.6202 45.3125,62.74 45.2303,62.74 45.23,62.7404 45.148,62.8602 45.1478,62.8606 45.0658,62.9804 44.9836,62.9804 44.9833,62.9808 44.9013,63.1006 44.8191,63.1006 44.8188,63.101 44.7368,63.2208 44.6546,63.2208 44.6543,63.2212 44.5724,63.341 44.5721,63.3413 44.4901,63.4612 44.4079,63.4612 44.4076,63.4615 44.3257,63.5814 44.3254,63.5817 44.2434,63.7015 44.1612,63.7015 44.1609,63.7019 44.0789,63.8217 44.0787,63.8221 43.9967,63.9419 43.9145,63.9419 43.9142,63.9423 43.8322,64.0621 43.832,64.0625 43.75,64.1823 43.6678,64.1823 43.6675,64.1827 43.5855,64.3025 43.5853,64.3029 43.5033,64.4227 43.4211,64.4227 43.4208,64.4231 43.3388,64.5429 43.3386,64.5433 43.2566,64.6631 43.1743,64.6631 43.1741,64.6635 43.0921,64.7833 43.0918,64.7837 43.0099,64.9035 42.9276,64.9035 42.9274,64.9038 42.8454,65.0237 42.7632,65.0237 42.7629,65.024 42.6809,65.1439 42.5987,65.1439 42.5984,65.1442 42.5164,65.264 42.5162,65.2644 42.4342,65.3842 42.352,65.3842 42.2697,65.3842 42.2695,65.3846 42.1875,65.5044 42.1053,65.5044 42.105,65.5048 42.023,65.6246 41.9408,65.6246 41.9405,65.625 41.8586,65.7448 41.7763,65.7448 41.7761,65.7452 41.6941,65.865 41.6118,65.865 41.6116,65.8654 41.5296,65.9852 41.4474,65.9852 41.4471,65.9856 41.3651,66.1054 41.2829,66.1054 41.2007,66.1054 41.2004,66.1058 41.1184,66.2256 41.0362,66.2256 40.9539,66.2256 40.9537,66.226 40.8717,66.3458 40.7895,66.3458 40.7072,66.3458 40.625,66.3458 40.6247,66.3462 40.5428,66.466 40.4605,66.466 40.3783,66.466 40.2961,66.466 40.2958,66.4663 40.2138,66.5862 40.1316,66.5862 40.0493,66.5862 39.9671,66.5862 39.8849,66.5862 39.8026,66.5862 39.8024,66.5865 39.7204,66.7064" /><polygon fill="white" points="48.9309,46.2737 48.8489,46.1538 48.9309,46.034 49.0129,46.1538 48.9309,46.2737" /><polygon fill="white" points="48.3553,47.2352 48.2733,47.1154 48.2733,46.9952 48.3553,46.8754 48.3555,46.875 48.4375,46.7552 48.4378,46.7548 48.5197,46.635 48.52,46.6346 48.602,46.5148 48.6022,46.5144 48.6842,46.3946 48.6845,46.3942 48.7664,46.2744 48.7667,46.274 48.8487,46.1542 48.9307,46.274 48.9307,46.3942 48.8487,46.514 48.8484,46.5144 48.7664,46.6342 48.7662,46.6346 48.6842,46.7544 48.684,46.7548 48.602,46.8746 48.6017,46.875 48.5197,46.9948 48.5195,46.9952 48.4375,47.115 48.4372,47.1154 48.3553,47.2352" /><polygon fill="white" points="48.0263,47.8362 47.9443,47.7163 47.9443,47.5962 48.0263,47.4763 48.0266,47.476 48.1086,47.3561 48.1088,47.3558 48.1908,47.236 48.191,47.2356 48.273,47.1158 48.355,47.2356 48.355,47.3558 48.273,47.4756 48.2728,47.476 48.1908,47.5958 48.1905,47.5962 48.1086,47.716 48.1083,47.7163 48.0263,47.8362" /><polygon fill="white" points="40.7895,52.764 40.7075,52.6442 40.7895,52.5244 40.8715,52.6442 40.7895,52.764" /><polygon fill="white" points="44.1612,58.1727 44.0792,58.0529 44.0789,58.0525 43.997,57.9327 43.9967,57.9323 43.9145,57.9323 43.8325,57.8125 43.8322,57.8121 43.75,57.8121 43.6678,57.8121 43.5858,57.6923 43.5855,57.6919 43.5033,57.6919 43.4211,57.6919 43.3391,57.5721 43.3388,57.5717 43.2566,57.5717 43.1746,57.4519 43.1743,57.4515 43.0921,57.4515 43.0101,57.3317 43.0099,57.3314 42.9276,57.3314 42.8457,57.2115 42.8454,57.2112 42.7632,57.2112 42.6812,57.0913 42.6809,57.091 42.5989,56.9712 42.5987,56.9708 42.5164,56.9708 42.4345,56.851 42.4342,56.8506 42.3522,56.7308 42.352,56.7304 42.27,56.6106 42.2697,56.6102 42.1878,56.4904 42.1875,56.49 42.1055,56.3702 42.1053,56.3698 42.0233,56.25 42.023,56.2496 41.941,56.1298 41.9408,56.1294 41.8588,56.0096 41.8586,56.0092 41.7766,55.8894 41.7766,55.7692 41.7763,55.7689 41.6943,55.649 41.6941,55.6487 41.6121,55.5288 41.6121,55.4087 41.6118,55.4083 41.5299,55.2885 41.5299,55.1683 41.5296,55.1679 41.4476,55.0481 41.4474,55.0477 41.3654,54.9279 41.3654,54.8077 41.3651,54.8073 41.2832,54.6875 41.2832,54.5673 41.2829,54.5669 41.2009,54.4471 41.2009,54.3269 41.2007,54.3265 41.1187,54.2067 41.1187,54.0865 41.1184,54.0862 41.0364,53.9663 41.0364,53.8462 41.0364,53.726 41.0362,53.7256 40.9542,53.6058 40.9542,53.4856 40.9542,53.3654 40.9539,53.365 40.872,53.2452 40.872,53.125 40.8717,53.1246 40.7897,53.0048 40.7897,52.8846 40.7897,52.7644 40.8717,52.6446 40.9539,52.6446 41.0359,52.7644 41.0362,52.7648 41.1182,52.8846 41.1184,52.885 41.2004,53.0048 41.2007,53.0052 41.2829,53.0052 41.3649,53.125 41.3651,53.1254 41.4471,53.2452 41.4474,53.2456 41.5296,53.2456 41.6116,53.3654 41.6118,53.3658 41.6938,53.4856 41.6941,53.486 41.7763,53.486 41.8583,53.6058 41.8586,53.6061 41.9405,53.726 41.9408,53.7263 42.023,53.7263 42.105,53.8462 42.1053,53.8465 42.1872,53.9663 42.1875,53.9667 42.2697,53.9667 42.3517,54.0865 42.352,54.0869 42.434,54.2067 42.4342,54.2071 42.5162,54.3269 42.5164,54.3273 42.5987,54.3273 42.6807,54.4471 42.6809,54.4475 42.7629,54.5673 42.7632,54.5677 42.8451,54.6875 42.8454,54.6879 42.9274,54.8077 42.9276,54.8081 43.0099,54.8081 43.0918,54.9279 43.0921,54.9283 43.1741,55.0481 43.1743,55.0485 43.2563,55.1683 43.2566,55.1686 43.3386,55.2885 43.3388,55.2888 43.4208,55.4087 43.4208,55.5288 43.4211,55.5292 43.503,55.649 43.5033,55.6494 43.5853,55.7692 43.5853,55.8894 43.5855,55.8898 43.6675,56.0096 43.6678,56.01 43.7497,56.1298 43.7497,56.25 43.75,56.2504 43.832,56.3702 43.832,56.4904 43.8322,56.4908 43.9142,56.6106 43.9142,56.7308 43.9145,56.7311 43.9965,56.851 43.9965,56.9712 43.9967,56.9715 44.0787,57.0913 44.0787,57.2115 44.0787,57.3317 44.0789,57.3321 44.1609,57.4519 44.1609,57.5721 44.1609,57.6923 44.1609,57.8125 44.1612,57.8129 44.2432,57.9327 44.2432,58.0529 44.1612,58.1727" /><polygon fill="white" points="43.9967,53.8458 43.9147,53.726 43.9147,53.6058 43.9147,53.4856 43.9147,53.3654 43.9147,53.2452 43.9145,53.2448 43.8325,53.125 43.8325,53.0048 43.8325,52.8846 43.9145,52.7648 43.9965,52.8846 43.9965,53.0048 43.9967,53.0052 44.0787,53.125 44.0787,53.2452 44.0787,53.3654 44.0787,53.4856 44.0787,53.6058 44.0787,53.726 43.9967,53.8458" /><polygon fill="white" points="44.0789,54.8073 43.997,54.6875 43.997,54.5673 43.997,54.4471 43.997,54.3269 43.997,54.2067 43.997,54.0865 43.997,53.9663 43.997,53.8462 44.0789,53.7263 44.1609,53.8462 44.1609,53.9663 44.1609,54.0865 44.1609,54.2067 44.1609,54.3269 44.1609,54.4471 44.1609,54.5673 44.1609,54.6875 44.0789,54.8073" /><polygon fill="white" points="44.2434,57.091 44.1614,56.9712 44.1614,56.851 44.1614,56.7308 44.1614,56.6106 44.1614,56.4904 44.1614,56.3702 44.1614,56.25 44.1614,56.1298 44.1612,56.1294 44.0792,56.0096 44.0792,55.8894 44.0792,55.7692 44.0792,55.649 44.0792,55.5288 44.0792,55.4087 44.0792,55.2885 44.0792,55.1683 44.0792,55.0481 44.0792,54.9279 44.0792,54.8077 44.1612,54.6879 44.2432,54.8077 44.2432,54.9279 44.2432,55.0481 44.2432,55.1683 44.2432,55.2885 44.2432,55.4087 44.2432,55.5288 44.2432,55.649 44.2432,55.7692 44.2434,55.7696 44.3254,55.8894 44.3254,56.0096 44.3254,56.1298 44.3254,56.25 44.3254,56.3702 44.3254,56.4904 44.3254,56.6106 44.3254,56.7308 44.3254,56.851 44.3254,56.9712 44.2434,57.091" /><polygon fill="white" points="44.3257,57.6919 44.2437,57.5721 44.2437,57.4519 44.2437,57.3317 44.2437,57.2115 44.2437,57.0913 44.3257,56.9715 44.4076,57.0913 44.4076,57.2115 44.4076,57.3317 44.4076,57.4519 44.4076,57.5721 44.3257,57.6919" /><polygon fill="white" points="44.4901,58.2929 44.4082,58.1731 44.4082,58.0529 44.4079,58.0525 44.3259,57.9327 44.3259,57.8125 44.3259,57.6923 44.4079,57.5725 44.4899,57.6923 44.4899,57.8125 44.4901,57.8129 44.5721,57.9327 44.5721,58.0529 44.5721,58.1731 44.4901,58.2929" /><polygon fill="white" points="42.023,59.014 41.9408,59.014 41.8586,59.014 41.7763,59.014 41.6941,59.014 41.6118,59.014 41.5296,59.014 41.4474,59.014 41.3651,59.014 41.2829,59.014 41.2007,59.014 41.1187,58.8942 41.1184,58.8939 41.0362,58.8939 40.9539,58.8939 40.8717,58.8939 40.7895,58.8939 40.7072,58.8939 40.625,58.8939 40.5428,58.8939 40.4605,58.8939 40.3783,58.8939 40.2961,58.8939 40.2138,58.8939 40.1316,58.8939 40.0493,58.8939 39.9671,58.8939 39.8849,58.8939 39.8026,58.8939 39.7204,58.8939 39.6384,58.774 39.7204,58.6542 39.8026,58.6542 39.8029,58.6538 39.8849,58.534 39.9671,58.534 40.0493,58.534 40.0496,58.5337 40.1316,58.4138 40.2138,58.4138 40.2961,58.4138 40.2963,58.4135 40.3783,58.2936 40.4605,58.2936 40.4608,58.2933 40.5428,58.1735 40.625,58.1735 40.7072,58.1735 40.7075,58.1731 40.7895,58.0533 40.8717,58.0533 40.9539,58.0533 41.0362,58.0533 41.0364,58.0529 41.1184,57.9331 41.2007,57.9331 41.2829,57.9331 41.3651,57.9331 41.3654,57.9327 41.4474,57.8129 41.5296,57.8129 41.6118,57.8129 41.6941,57.8129 41.7763,57.8129 41.8586,57.8129 41.9408,57.8129 42.023,57.8129 42.1053,57.8129 42.1875,57.8129 42.2697,57.8129 42.352,57.8129 42.434,57.9327 42.4342,57.9331 42.5164,57.9331 42.5987,57.9331 42.6809,57.9331 42.7629,58.0529 42.7632,58.0533 42.8454,58.0533 42.9274,58.1731 42.9276,58.1735 43.0099,58.1735 43.0918,58.2933 43.0921,58.2936 43.1741,58.4135 43.0921,58.5333 43.0099,58.5333 43.0096,58.5337 42.9276,58.6535 42.8454,58.6535 42.8451,58.6538 42.7632,58.7737 42.6809,58.7737 42.5987,58.7737 42.5984,58.774 42.5164,58.8939 42.4342,58.8939 42.352,58.8939 42.2697,58.8939 42.1875,58.8939 42.1053,58.8939 42.105,58.8942 42.023,59.014" /><polygon fill="white" points="44.6546,58.7737 44.5726,58.6538 44.5724,58.6535 44.4904,58.5337 44.4904,58.4135 44.4904,58.2933 44.5724,58.1735 44.6543,58.2933 44.6543,58.4135 44.6546,58.4138 44.7366,58.5337 44.7366,58.6538 44.6546,58.7737" /><polygon fill="white" points="43.4211,58.5333 43.3391,58.4135 43.4211,58.2936 43.503,58.4135 43.4211,58.5333" /><polygon fill="white" points="43.6678,58.6535 43.5855,58.6535 43.5035,58.5337 43.5855,58.4138 43.6678,58.4138 43.7497,58.5337 43.6678,58.6535" /><polygon fill="white" points="44.0789,58.7737 43.9967,58.7737 43.9145,58.7737 43.8325,58.6538 43.9145,58.534 43.9967,58.534 44.0789,58.534 44.1609,58.6538 44.0789,58.7737" /></svg>