<svg width="39" height="39" viewBox="0 0 39 39" fill="none" xmlns="http://www.w3.org/2000/svg">
<g clip-path="url(#clip0_1_11)">
<path d="M19.4993 38.9986C30.2685 38.9986 38.9986 30.2685 38.9986 19.4993C38.9986 8.73013 30.2685 0 19.4993 0C8.73013 0 0 8.73013 0 19.4993C0 30.2685 8.73013 38.9986 19.4993 38.9986Z" fill="white"/>
<path d="M23.8988 15.0451C22.7241 13.8676 21.1597 13.22 19.4972 13.22C16.0656 13.22 13.2733 16.0124 13.2733 19.4439C13.2733 20.5401 13.5592 21.6111 14.1031 22.5559L13.22 25.78L16.5198 24.9137C17.4282 25.4099 18.4515 25.6707 19.4944 25.6707H19.4972C22.926 25.6707 25.78 22.8783 25.78 19.4467C25.78 17.7842 25.0735 16.2226 23.8988 15.0451ZM19.4972 24.6221C18.5664 24.6221 17.6553 24.3726 16.8618 23.9016L16.674 23.7895L14.7171 24.3025L15.2386 22.3933L15.1152 22.197C14.5966 21.3728 14.3246 20.4224 14.3246 19.4439C14.3246 16.5927 16.646 14.2713 19.5 14.2713C20.8822 14.2713 22.1802 14.8096 23.1559 15.7881C24.1315 16.7665 24.7315 18.0646 24.7287 19.4467C24.7287 22.3008 22.3484 24.6221 19.4972 24.6221ZM22.3344 20.7476C22.1802 20.6691 21.4148 20.2934 21.2719 20.2429C21.1289 20.1897 21.0251 20.1644 20.9214 20.3214C20.8177 20.4784 20.5205 20.8261 20.428 20.9326C20.3383 21.0364 20.2458 21.0504 20.0916 20.9719C19.1776 20.5149 18.5776 20.156 17.9749 19.1215C17.8151 18.8468 18.1347 18.8664 18.4318 18.272C18.4823 18.1683 18.4571 18.0786 18.4178 18.0001C18.3786 17.9216 18.0674 17.1562 17.9384 16.845C17.8123 16.5422 17.6833 16.5843 17.588 16.5787C17.4983 16.5731 17.3945 16.5731 17.2908 16.5731C17.1871 16.5731 17.0188 16.6123 16.8759 16.7665C16.7329 16.9235 16.332 17.2992 16.332 18.0646C16.332 18.8299 16.8899 19.5701 16.9656 19.6738C17.0441 19.7776 18.0618 21.3476 19.6234 22.0232C20.6102 22.4494 20.9971 22.4858 21.4905 22.4129C21.7905 22.3681 22.4101 22.0372 22.5391 21.6728C22.668 21.3083 22.668 20.9971 22.6288 20.9326C22.5923 20.8625 22.4886 20.8233 22.3344 20.7476Z" fill="black"/>
</g>
<defs>
<clipPath id="clip0_1_11">
<rect width="39" height="39" fill="white"/>
</clipPath>
</defs>
</svg>
